<svg xmlns="http://www.w3.org/2000/svg" width="20" height="20" viewBox="0 0 20 20" fill="none">
  <path d="M4.16667 8.16659C4.16667 7.45242 4.16667 6.96742 4.19833 6.59242C4.2275 6.22742 4.28167 6.03992 4.34833 5.90992L2.86333 5.15325C2.6575 5.55742 2.575 5.98825 2.53667 6.45659C2.5 6.91492 2.5 7.47992 2.5 8.16659H4.16667ZM4.16667 9.99992V8.16659H2.5V9.99992H4.16667ZM2.5 9.99992V14.1666H4.16667V9.99992H2.5ZM2.5 14.1666V16.5949H4.16667V14.1666H2.5ZM2.5 16.5949C2.5 17.6708 3.80167 18.2099 4.5625 17.4491L3.38417 16.2708C3.44827 16.2066 3.52995 16.1629 3.61887 16.1452C3.7078 16.1276 3.79998 16.1366 3.88375 16.1713C3.96752 16.206 4.03911 16.2648 4.08947 16.3402C4.13983 16.4156 4.1667 16.5042 4.16667 16.5949H2.5ZM4.5625 17.4491L7.0125 14.9999L5.83333 13.8216L3.38417 16.2708L4.5625 17.4491ZM12.6667 13.3333H7.01167V14.9999H12.6667V13.3333ZM14.9233 13.1516C14.7933 13.2183 14.6067 13.2724 14.2408 13.3016C13.8658 13.3324 13.3808 13.3333 12.6667 13.3333V14.9999C13.3533 14.9999 13.9175 14.9999 14.3767 14.9633C14.845 14.9249 15.2758 14.8424 15.68 14.6366L14.9233 13.1516ZM15.6517 12.4233C15.4919 12.7368 15.2369 12.9918 14.9233 13.1516L15.68 14.6366C16.3072 14.317 16.8171 13.8071 17.1367 13.1799L15.6517 12.4233ZM15.8333 10.1666C15.8333 10.8808 15.8333 11.3658 15.8017 11.7408C15.7725 12.1058 15.7183 12.2933 15.6517 12.4233L17.1367 13.1799C17.3425 12.7758 17.425 12.3449 17.4633 11.8766C17.5008 11.4183 17.5 10.8533 17.5 10.1666H15.8333ZM15.8333 8.16659V10.1666H17.5V8.16659H15.8333ZM15.6517 5.90992C15.7183 6.03992 15.7725 6.22659 15.8017 6.59242C15.8333 6.96742 15.8333 7.45242 15.8333 8.16659H17.5C17.5 7.47992 17.5 6.91575 17.4633 6.45659C17.425 5.98825 17.3425 5.55742 17.1367 5.15325L15.6517 5.90992ZM14.9233 5.18159C15.2369 5.34137 15.4919 5.59633 15.6517 5.90992L17.1367 5.15325C16.8171 4.52607 16.3072 4.01616 15.68 3.69659L14.9233 5.18159ZM12.6667 4.99992C13.3808 4.99992 13.8658 4.99992 14.2408 5.03159C14.6058 5.06075 14.7933 5.11492 14.9233 5.18159L15.68 3.69659C15.2758 3.49075 14.845 3.40825 14.3767 3.36992C13.9183 3.33325 13.3533 3.33325 12.6667 3.33325V4.99992ZM7.33333 4.99992H12.6667V3.33325H7.33333V4.99992ZM5.07667 5.18159C5.20667 5.11492 5.39333 5.06075 5.75917 5.03159C6.13417 4.99992 6.61917 4.99992 7.33333 4.99992V3.33325C6.64667 3.33325 6.0825 3.33325 5.62333 3.36992C5.155 3.40825 4.72417 3.49075 4.32 3.69659L5.07667 5.18159ZM4.34833 5.90992C4.50812 5.59633 4.76308 5.34137 5.07667 5.18159L4.32 3.69659C3.69282 4.01616 3.18291 4.52607 2.86333 5.15325L4.34833 5.90992ZM7.01167 14.9999V13.3333C6.56967 13.3333 6.14582 13.509 5.83333 13.8216L7.01167 14.9999Z" fill="#366EFF"/>
  <path d="M6.66664 7.5H13.3333M6.66664 10.8333H10.8333" stroke="#366EFF" stroke-width="1.42857" stroke-linecap="round" stroke-linejoin="round"/>
</svg>