<svg width="168" height="161" viewBox="0 0 168 161" fill="none" xmlns="http://www.w3.org/2000/svg">
<mask id="path-1-outside-1_29_222" maskUnits="userSpaceOnUse" x="5" y="98.3975" width="157" height="56" fill="black">
<rect fill="white" x="5" y="98.3975" width="157" height="56"/>
<path d="M46.0248 152.994V140.074C42.1739 141.234 37.6812 142.041 32.5466 142.497C27.4534 142.952 21.8634 143.18 15.7764 143.18H6.8323V121.379H28.323V107.093H6.8323V103.429H32.6087V124.919H11.118V139.515H15.8385C18.5714 139.515 21.2836 139.474 23.9752 139.391C26.7081 139.308 29.3582 139.143 31.9255 138.894C34.4928 138.646 36.9565 138.315 39.3168 137.901C41.7184 137.445 43.9545 136.886 46.0248 136.224V99.7018H50.3106V152.994H46.0248ZM57.0832 147.279V143.553H109.257V147.279H57.0832ZM104.475 129.888C103.191 130.219 101.845 130.489 100.437 130.696C99.0708 130.903 97.5594 131.068 95.9031 131.192C94.2468 131.317 92.4248 131.42 90.4373 131.503C88.4911 131.544 86.3172 131.565 83.9155 131.565H63.605V104.05H102.735V107.776H67.8907V127.838H83.9776C86.0894 127.838 88.0149 127.818 89.754 127.776C91.5346 127.735 93.1909 127.652 94.723 127.528C96.2965 127.404 97.8286 127.238 99.3193 127.031C100.81 126.824 102.342 126.555 103.916 126.224L104.475 129.888ZM156.465 152.994V99.7018H160.75V152.994H156.465ZM116.03 141.006V103.739H142.8V141.006H116.03ZM138.576 107.404H120.253V137.342H138.576V107.404Z"/>
</mask>
<path d="M46.0248 152.994V140.074C42.1739 141.234 37.6812 142.041 32.5466 142.497C27.4534 142.952 21.8634 143.18 15.7764 143.18H6.8323V121.379H28.323V107.093H6.8323V103.429H32.6087V124.919H11.118V139.515H15.8385C18.5714 139.515 21.2836 139.474 23.9752 139.391C26.7081 139.308 29.3582 139.143 31.9255 138.894C34.4928 138.646 36.9565 138.315 39.3168 137.901C41.7184 137.445 43.9545 136.886 46.0248 136.224V99.7018H50.3106V152.994H46.0248ZM57.0832 147.279V143.553H109.257V147.279H57.0832ZM104.475 129.888C103.191 130.219 101.845 130.489 100.437 130.696C99.0708 130.903 97.5594 131.068 95.9031 131.192C94.2468 131.317 92.4248 131.42 90.4373 131.503C88.4911 131.544 86.3172 131.565 83.9155 131.565H63.605V104.05H102.735V107.776H67.8907V127.838H83.9776C86.0894 127.838 88.0149 127.818 89.754 127.776C91.5346 127.735 93.1909 127.652 94.723 127.528C96.2965 127.404 97.8286 127.238 99.3193 127.031C100.81 126.824 102.342 126.555 103.916 126.224L104.475 129.888ZM156.465 152.994V99.7018H160.75V152.994H156.465ZM116.03 141.006V103.739H142.8V141.006H116.03ZM138.576 107.404H120.253V137.342H138.576V107.404Z" fill="#4575F1"/>
<path d="M46.0248 152.994H45.0311V153.988H46.0248V152.994ZM46.0248 140.074H47.0186V138.737L45.7383 139.123L46.0248 140.074ZM32.5466 142.497L32.4588 141.507L32.4581 141.507L32.5466 142.497ZM6.8323 143.18H5.83851V144.174H6.8323V143.18ZM6.8323 121.379V120.385H5.83851V121.379H6.8323ZM28.323 121.379V122.373H29.3168V121.379H28.323ZM28.323 107.093H29.3168V106.099H28.323V107.093ZM6.8323 107.093H5.83851V108.087H6.8323V107.093ZM6.8323 103.429V102.435H5.83851V103.429H6.8323ZM32.6087 103.429H33.6025V102.435H32.6087V103.429ZM32.6087 124.919V125.913H33.6025V124.919H32.6087ZM11.118 124.919V123.925H10.1242V124.919H11.118ZM11.118 139.515H10.1242V140.509H11.118V139.515ZM23.9752 139.391L23.9451 138.398L23.9446 138.398L23.9752 139.391ZM39.3168 137.901L39.4885 138.879L39.5019 138.877L39.3168 137.901ZM46.0248 136.224L46.3277 137.17L47.0186 136.949V136.224H46.0248ZM46.0248 99.7018V98.708H45.0311V99.7018H46.0248ZM50.3106 99.7018H51.3043V98.708H50.3106V99.7018ZM50.3106 152.994V153.988H51.3043V152.994H50.3106ZM47.0186 152.994V140.074H45.0311V152.994H47.0186ZM45.7383 139.123C41.9673 140.258 37.5438 141.056 32.4588 141.507L32.6344 143.487C37.8185 143.027 42.3805 142.21 46.3113 141.026L45.7383 139.123ZM32.4581 141.507C27.3992 141.959 21.8392 142.186 15.7764 142.186V144.174C21.8875 144.174 27.5076 143.945 32.6351 143.487L32.4581 141.507ZM15.7764 142.186H6.8323V144.174H15.7764V142.186ZM7.82609 143.18V121.379H5.83851V143.18H7.82609ZM6.8323 122.373H28.323V120.385H6.8323V122.373ZM29.3168 121.379V107.093H27.3292V121.379H29.3168ZM28.323 106.099H6.8323V108.087H28.323V106.099ZM7.82609 107.093V103.429H5.83851V107.093H7.82609ZM6.8323 104.422H32.6087V102.435H6.8323V104.422ZM31.6149 103.429V124.919H33.6025V103.429H31.6149ZM32.6087 123.925H11.118V125.913H32.6087V123.925ZM10.1242 124.919V139.515H12.1118V124.919H10.1242ZM11.118 140.509H15.8385V138.522H11.118V140.509ZM15.8385 140.509C18.5815 140.509 21.3039 140.468 24.0057 140.385L23.9446 138.398C21.2634 138.48 18.5614 138.522 15.8385 138.522V140.509ZM24.0053 140.385C26.7588 140.301 29.4308 140.134 32.0212 139.884L31.8297 137.905C29.2855 138.151 26.6574 138.316 23.9451 138.398L24.0053 140.385ZM32.0212 139.884C34.612 139.633 37.1012 139.298 39.4885 138.879L39.145 136.922C36.8118 137.331 34.3735 137.659 31.8297 137.905L32.0212 139.884ZM39.5019 138.877C41.9386 138.415 44.2143 137.846 46.3277 137.17L45.722 135.277C43.6946 135.926 41.4983 136.475 39.1316 136.924L39.5019 138.877ZM47.0186 136.224V99.7018H45.0311V136.224H47.0186ZM46.0248 100.696H50.3106V98.708H46.0248V100.696ZM49.3168 99.7018V152.994H51.3043V99.7018H49.3168ZM50.3106 152H46.0248V153.988H50.3106V152ZM57.0832 147.279H56.0894V148.273H57.0832V147.279ZM57.0832 143.553V142.559H56.0894V143.553H57.0832ZM109.257 143.553H110.251V142.559H109.257V143.553ZM109.257 147.279V148.273H110.251V147.279H109.257ZM104.475 129.888L104.723 130.85L105.592 130.626L105.457 129.738L104.475 129.888ZM100.437 130.696L100.293 129.712L100.288 129.713L100.437 130.696ZM90.4373 131.503L90.4584 132.497L90.4685 132.496L90.4786 132.496L90.4373 131.503ZM63.605 131.565H62.6112V132.559H63.605V131.565ZM63.605 104.05V103.056H62.6112V104.05H63.605ZM102.735 104.05H103.729V103.056H102.735V104.05ZM102.735 107.776V108.77H103.729V107.776H102.735ZM67.8907 107.776V106.783H66.8969V107.776H67.8907ZM67.8907 127.838H66.8969V128.832H67.8907V127.838ZM89.754 127.776L89.7309 126.783L89.7304 126.783L89.754 127.776ZM94.723 127.528L94.6448 126.537L94.6427 126.537L94.723 127.528ZM103.916 126.224L104.898 126.074L104.739 125.035L103.711 125.251L103.916 126.224ZM58.077 147.279V143.553H56.0894V147.279H58.077ZM57.0832 144.547H109.257V142.559H57.0832V144.547ZM108.263 143.553V147.279H110.251V143.553H108.263ZM109.257 146.286H57.0832V148.273H109.257V146.286ZM104.226 128.926C102.979 129.248 101.668 129.51 100.293 129.712L100.582 131.679C102.022 131.467 103.403 131.191 104.723 130.85L104.226 128.926ZM100.288 129.713C98.951 129.916 97.4649 130.079 95.8288 130.201L95.9774 132.183C97.6539 132.058 99.1906 131.89 100.586 131.678L100.288 129.713ZM95.8288 130.201C94.1853 130.325 92.3745 130.428 90.3959 130.51L90.4786 132.496C92.4751 132.413 94.3083 132.309 95.9774 132.183L95.8288 130.201ZM90.4161 130.509C88.4784 130.551 86.3117 130.571 83.9155 130.571V132.559C86.3227 132.559 88.5038 132.538 90.4584 132.497L90.4161 130.509ZM83.9155 130.571H63.605V132.559H83.9155V130.571ZM64.5988 131.565V104.05H62.6112V131.565H64.5988ZM63.605 105.043H102.735V103.056H63.605V105.043ZM101.742 104.05V107.776H103.729V104.05H101.742ZM102.735 106.783H67.8907V108.77H102.735V106.783ZM66.8969 107.776V127.838H68.8845V107.776H66.8969ZM67.8907 128.832H83.9776V126.845H67.8907V128.832ZM83.9776 128.832C86.0957 128.832 88.0292 128.811 89.7777 128.77L89.7304 126.783C88.0006 126.824 86.0832 126.845 83.9776 126.845V128.832ZM89.7771 128.77C91.5739 128.728 93.2495 128.644 94.8033 128.518L94.6427 126.537C93.1323 126.66 91.4953 126.742 89.7309 126.783L89.7771 128.77ZM94.8012 128.519C96.3933 128.393 97.9449 128.225 99.456 128.015L99.1825 126.047C97.7122 126.251 96.1997 126.414 94.6448 126.537L94.8012 128.519ZM99.456 128.015C100.971 127.805 102.526 127.532 104.12 127.196L103.711 125.251C102.158 125.578 100.649 125.843 99.1825 126.047L99.456 128.015ZM102.933 126.373L103.492 130.038L105.457 129.738L104.898 126.074L102.933 126.373ZM156.465 152.994H155.471V153.988H156.465V152.994ZM156.465 99.7018V98.708H155.471V99.7018H156.465ZM160.75 99.7018H161.744V98.708H160.75V99.7018ZM160.75 152.994V153.988H161.744V152.994H160.75ZM116.03 141.006H115.036V142H116.03V141.006ZM116.03 103.739V102.745H115.036V103.739H116.03ZM142.8 103.739H143.794V102.745H142.8V103.739ZM142.8 141.006V142H143.794V141.006H142.8ZM138.576 107.404H139.57V106.41H138.576V107.404ZM120.253 107.404V106.41H119.26V107.404H120.253ZM120.253 137.342H119.26V138.335H120.253V137.342ZM138.576 137.342V138.335H139.57V137.342H138.576ZM157.458 152.994V99.7018H155.471V152.994H157.458ZM156.465 100.696H160.75V98.708H156.465V100.696ZM159.757 99.7018V152.994H161.744V99.7018H159.757ZM160.75 152H156.465V153.988H160.75V152ZM117.024 141.006V103.739H115.036V141.006H117.024ZM116.03 104.733H142.8V102.745H116.03V104.733ZM141.806 103.739V141.006H143.794V103.739H141.806ZM142.8 140.012H116.03V142H142.8V140.012ZM138.576 106.41H120.253V108.397H138.576V106.41ZM119.26 107.404V137.342H121.247V107.404H119.26ZM120.253 138.335H138.576V136.348H120.253V138.335ZM139.57 137.342V107.404H137.583V137.342H139.57Z" fill="#4575F1" mask="url(#path-1-outside-1_29_222)"/>
<ellipse cx="82.7329" cy="21.6298" rx="26.7951" ry="21.6298" fill="#4575F1"/>
<ellipse cx="55.615" cy="43.5824" rx="26.7951" ry="21.6298" fill="#4575F1"/>
<ellipse cx="109.205" cy="32.6061" rx="26.7951" ry="21.6298" fill="#4575F1"/>
<ellipse cx="109.851" cy="54.5587" rx="26.7951" ry="21.6298" fill="#4575F1"/>
<ellipse cx="76.9219" cy="54.5587" rx="26.7951" ry="21.6298" fill="#4575F1"/>
</svg>
