<svg width="119" height="30" viewBox="0 0 119 30" fill="none" xmlns="http://www.w3.org/2000/svg">
<path d="M68.9505 26.8398V22.116C68.0886 22.3315 67.1355 22.5138 66.0913 22.663C64.2681 22.9116 62.1465 23.0359 59.7266 23.0359H53.7348V13.6877H61.7902V9.0385H53.7348V6.77605H64.3012V15.9005H56.2459V20.7734H59.7515C61.9393 20.7734 63.8952 20.6574 65.6189 20.4254C66.8289 20.2596 67.9394 20.0359 68.9505 19.7541V5.50808H71.4615V26.8398H68.9505ZM95.0567 22.5386V24.8011H74.1725V22.5386H95.0567ZM93.2666 17.7651C92.7528 17.8811 92.2141 17.9806 91.6506 18.0635C91.1036 18.1463 90.4987 18.2126 89.8357 18.2624C89.1727 18.3121 88.4434 18.3452 87.6478 18.3618C86.8688 18.3784 85.9986 18.3867 85.0373 18.3867H76.6587V6.9998H92.5705V9.28712H79.1201V16.0994H85.0621C85.9074 16.0994 86.6699 16.0911 87.3495 16.0745C88.0456 16.0579 88.7003 16.0331 89.3136 15.9999C89.9268 15.9502 90.5235 15.8922 91.1036 15.8259C91.6838 15.743 92.2887 15.6353 92.9186 15.5027L93.2666 17.7651ZM97.7677 22.1657V6.90036H108.732V22.1657H97.7677ZM106.246 9.16281H100.254V19.9033H106.246V9.16281ZM113.481 26.8398V5.50808H115.992V26.8398H113.481Z" fill="#4575F1"/>
<path d="M32.9341 8.51695C32.9341 13.2207 28.0388 17.0339 22 17.0339C15.9612 17.0339 11.0659 13.2207 11.0659 8.51695C11.0659 3.81317 15.9612 0 22 0C28.0388 0 32.9341 3.81317 32.9341 8.51695Z" fill="#4575F1"/>
<path d="M21.8683 17.161C21.8683 21.8648 16.9729 25.678 10.9341 25.678C4.89538 25.678 0 21.8648 0 17.161C0 12.4572 4.89538 8.64407 10.9341 8.64407C16.9729 8.64407 21.8683 12.4572 21.8683 17.161Z" fill="#4575F1"/>
<path d="M43.7365 12.839C43.7365 17.5428 38.8411 21.3559 32.8024 21.3559C26.7636 21.3559 21.8683 17.5428 21.8683 12.839C21.8683 8.13521 26.7636 4.32204 32.8024 4.32204C38.8411 4.32204 43.7365 8.13521 43.7365 12.839Z" fill="#4575F1"/>
<path d="M44 21.4831C44 26.1868 39.1046 30 33.0659 30C27.0271 30 22.1317 26.1868 22.1317 21.4831C22.1317 16.7793 27.0271 12.9661 33.0659 12.9661C39.1046 12.9661 44 16.7793 44 21.4831Z" fill="#4575F1"/>
<path d="M30.5629 21.4831C30.5629 26.1868 25.6675 30 19.6287 30C13.59 30 8.69461 26.1868 8.69461 21.4831C8.69461 16.7793 13.59 12.9661 19.6287 12.9661C25.6675 12.9661 30.5629 16.7793 30.5629 21.4831Z" fill="#4575F1"/>
</svg>